<!-- Generated by IcoMoon.io -->
<svg version="1.1" xmlns="http://www.w3.org/2000/svg" width="32" height="32" viewBox="0 0 32 32">
<title>glasses</title>
<path d="M30.739 13.9c0.706 0 1.261 0.584 1.261 1.283s-0.554 1.283-1.261 1.283h-0.306c-0.23 3.636-3.126 6.533-6.676 6.533-3.701 0-6.691-3.148-6.691-7 0-0.651-0.49-1.167-1.067-1.167s-1.067 0.516-1.067 1.167c0 3.852-2.99 7-6.691 7-3.55 0-6.446-2.897-6.676-6.533h-0.306c-0.706 0-1.261-0.584-1.261-1.283s0.554-1.283 1.261-1.283h0.599c0.864-2.874 3.429-4.9 6.383-4.9 2.537 0 4.807 1.496 5.94 3.782 0.543-0.333 1.167-0.515 1.817-0.515s1.274 0.182 1.817 0.515c1.133-2.286 3.404-3.782 5.94-3.782 2.954 0 5.519 2.026 6.383 4.9h0.599zM8.242 20.433c2.288 0 4.17-1.981 4.17-4.433s-1.881-4.433-4.17-4.433c-2.288 0-4.17 1.981-4.17 4.433s1.881 4.433 4.17 4.433zM23.758 20.433c2.288 0 4.17-1.981 4.17-4.433s-1.881-4.433-4.17-4.433c-2.288 0-4.17 1.981-4.17 4.433s1.881 4.433 4.17 4.433z"></path>
</svg>
