<!-- Generated by IcoMoon.io -->
<svg version="1.1" xmlns="http://www.w3.org/2000/svg" width="32" height="32" viewBox="0 0 32 32">
<title>stamp</title>
<path d="M16.020 27.805c6.508 0 11.784-5.276 11.784-11.784s-5.276-11.784-11.784-11.784c-6.508 0-11.784 5.276-11.784 11.784s5.276 11.784 11.784 11.784zM13.006 31.866c-0.836 0.316-1.78 0.063-2.347-0.629l-2.027-2.476-3.158-0.518c-0.882-0.145-1.573-0.836-1.718-1.718l-0.518-3.158-2.476-2.027c-0.692-0.566-0.945-1.511-0.629-2.347l1.13-2.994-1.13-2.994c-0.316-0.836-0.063-1.78 0.629-2.347l2.476-2.027 0.518-3.158c0.145-0.882 0.836-1.573 1.718-1.718l3.158-0.518 2.027-2.476c0.566-0.692 1.511-0.945 2.347-0.629l2.994 1.13 2.994-1.13c0.836-0.316 1.78-0.063 2.347 0.629l2.027 2.476 3.158 0.518c0.882 0.145 1.573 0.836 1.718 1.718l0.518 3.158 2.476 2.027c0.692 0.566 0.945 1.511 0.629 2.347l-1.13 2.994 1.13 2.994c0.316 0.836 0.063 1.78-0.629 2.347l-2.476 2.027-0.518 3.158c-0.145 0.882-0.836 1.573-1.718 1.718l-3.158 0.518-2.027 2.476c-0.566 0.692-1.511 0.945-2.347 0.629l-2.994-1.13-2.994 1.13z"></path>
</svg>
