<?xml version="1.0" encoding="UTF-8"?>
<svg width="576px" height="641px" viewBox="0 0 576 641" version="1.1" xmlns="http://www.w3.org/2000/svg" xmlns:xlink="http://www.w3.org/1999/xlink">
    <!-- Generator: Sketch 53.2 (72643) - https://sketchapp.com -->
    <title>hash</title>
    <desc>Created with Sketch.</desc>
    <g id="hash" stroke="none" stroke-width="1" fill="none" fill-rule="evenodd">
        <g transform="translate(106.000000, 118.000000)" fill="#102030" fill-rule="nonzero" id="Shape">
            <path d="M226.812444,162.000812 L217.833778,242.999188 L137.187556,242.999188 L146.166222,162.000812 L226.812444,162.000812 Z M242.788,18.0261989 L231.301778,121.501624 L150.655556,121.501624 L161.636222,22.4811096 C162.869778,11.3640825 154.861778,1.36078309 143.78,0.12555786 C132.698222,-1.10966737 122.688222,6.90917184 121.454667,18.0261989 L109.968444,121.501624 L20.2222222,121.501624 C9.05955556,121.501624 0,130.573442 0,141.751218 C0,152.928994 9.05955556,162.000812 20.2222222,162.000812 L105.479111,162.000812 L96.5004444,242.999188 L20.2222222,242.999188 C9.05955556,242.999188 1.79609414e-14,252.071006 1.79609414e-14,263.248782 C1.79609414e-14,274.426558 9.05955556,283.498376 20.2222222,283.498376 L91.9908889,283.498376 L81.0102222,382.51889 C79.7766667,393.635917 87.7846667,403.639217 98.8664444,404.874442 C109.948222,406.109667 119.958222,398.090828 121.191778,386.994051 L132.698222,283.498376 L213.344444,283.498376 L202.363778,382.51889 C201.130222,393.635917 209.138222,403.639217 220.22,404.874442 C231.301778,406.109667 241.311778,398.090828 242.545333,386.994051 L254.031556,283.498376 L343.777778,283.498376 C354.940444,283.498376 364,274.426558 364,263.248782 C364,252.071006 354.940444,242.999188 343.777778,242.999188 L258.520889,242.999188 L267.499556,162.000812 L343.777778,162.000812 C354.940444,162.000812 364,152.928994 364,141.751218 C364,130.573442 354.940444,121.501624 343.777778,121.501624 L272.009111,121.501624 L282.989778,22.4811096 C284.223333,11.3640825 276.215333,1.36078309 265.133556,0.12555786 C254.051778,-1.10966737 244.041778,6.90917184 242.808222,18.0059493 L242.788,18.0261989 Z"></path>
        </g>
    </g>
</svg>